<?xml version="1.0" encoding="utf-8"?>
<!-- Generator: Adobe Illustrator 30.4.0, SVG Export Plug-In . SVG Version: 9.03 Build 0)  -->
<svg version="1.0" id="Layer_1" xmlns="http://www.w3.org/2000/svg" xmlns:xlink="http://www.w3.org/1999/xlink" x="0px" y="0px"
	 viewBox="0 0 1500 1500" style="enable-background:new 0 0 1500 1500;" xml:space="preserve">
<style type="text/css">
	.st0{fill:#B1121B;}
	.st1{fill:url(#SVGID_1_);}
	.st2{fill:url(#SVGID_00000075149375454963818380000004386940792878958754_);}
	.st3{fill:url(#SVGID_00000002376517926912340480000004176425068521861816_);}
	.st4{fill:url(#SVGID_00000139977911454745449580000018017957652033939387_);}
	.st5{fill:url(#SVGID_00000179644644448080078290000007982914552880255876_);}
	.st6{fill:url(#SVGID_00000065782977710578520580000012246009079498637238_);}
	.st7{fill:url(#SVGID_00000003105523980138583190000015760925497617031081_);}
	.st8{fill:url(#SVGID_00000103256025999743865880000012289656088454414721_);}
	.st9{fill:url(#SVGID_00000182518000235220476410000015062144943785218474_);}
	.st10{fill:url(#SVGID_00000009547745569300357750000008750062198248503441_);}
	.st11{fill:url(#SVGID_00000023985672068308458570000015833283392135675797_);}
	.st12{fill:url(#SVGID_00000078039091185515826820000015388535120761142197_);}
	.st13{fill:url(#SVGID_00000170985145950150443140000011868304593184822417_);}
	.st14{fill:url(#SVGID_00000174568458955310922440000015448030361587757742_);}
	.st15{fill:url(#SVGID_00000029038843090121399960000011530403082703711366_);}
</style>
<g>
	<path class="st0" d="M405.8,297.2C278.3,388.5,194,527.5,173.6,680.1c-3.8,28.4-4.9,46-4.9,75.9c0,29.8,1.1,47.5,4.9,75.5
		c13.3,99.7,53.4,193.6,116.9,273.5c27.7,34.9,64.5,71.1,99.8,98.2l9.9,7.6l11.1-3.5c40.9-12.8,82.1-29,111.9-43.9
		c22.1-11.1,46.8-26.2,66.6-40.8l8.3-6.1l-7.3-0.7c-9.8-1.1-22.6-4.3-30.6-8c-15.3-6.8-34.8-22.8-48.4-39.7
		c-22.3-27.6-43.4-70.8-57.1-117.1c-13.2-44.1-20.6-87.6-24.7-143.5c-2.3-32-0.9-93.4,3-128.5c4.8-43.4,14.1-86.6,26.4-123.5
		c17.3-51.9,38.7-89.9,65.5-116.6c22.1-22,44.7-32.9,68.9-33.1c5.6,0,10.2-0.4,10.2-0.8c0-1.2-16.9-16.9-30.5-28.5
		c-31.2-26.4-63.3-47.5-103-67.5c-17.6-8.9-47-22-49.3-22C420.6,287,413.7,291.6,405.8,297.2z"/>
	<g>
		
			<linearGradient id="SVGID_1_" gradientUnits="userSpaceOnUse" x1="616.9086" y1="-105.5768" x2="1035.1475" y2="-142.1681" gradientTransform="matrix(1 0 0 1 0 872)">
			<stop  offset="0" style="stop-color:#B1121B"/>
			<stop  offset="0.7193" style="stop-color:#B1121B"/>
			<stop  offset="0.8377" style="stop-color:#B1121B"/>
			<stop  offset="0.8899" style="stop-color:#B2141D"/>
			<stop  offset="0.9125" style="stop-color:#B41B24"/>
			<stop  offset="0.9294" style="stop-color:#B82830"/>
			<stop  offset="0.9436" style="stop-color:#BE3A41"/>
			<stop  offset="0.9559" style="stop-color:#C65158"/>
			<stop  offset="0.967" style="stop-color:#CF6E73"/>
			<stop  offset="0.9772" style="stop-color:#DA9094"/>
			<stop  offset="0.9866" style="stop-color:#E7B7BA"/>
			<stop  offset="0.9952" style="stop-color:#F6E3E4"/>
			<stop  offset="1" style="stop-color:#FFFFFF"/>
		</linearGradient>
		<path class="st1" d="M737,200.9c0,0.4,5.9,4,13.2,8.1c26.5,15.1,55.4,35.4,79.3,55.8c14.2,12.2,40.2,38.5,52.4,53.2
			c27.4,32.7,47.9,64.3,67.1,103.5c12,24.4,20.2,44.2,28.6,68.7c19.3,56.8,31.3,118.1,37,188.8c2.3,28.1,2.8,105.2,0.9,132.5
			c-2.3,32.4-5.4,58.7-10.1,85c-18.6,104.3-57.1,189.8-118.2,262.5c-13.3,15.8-43,45.4-58.7,58.6c-33.5,28-65.7,49.4-107.5,71.7
			c-11.4,6.1-43.6,21.2-51.2,24.2c-2.7,1-4.8,2.2-4.8,2.6c0,0.5,1.8,0.9,4,0.9c5.2,0,25.4-8.6,56.5-24c44.8-22.2,81.1-45.8,118-76.4
			c15.1-12.6,47-44.5,59.7-59.6c65.6-78.7,105.8-173.3,121.7-286.5c5.5-39.7,6.9-58.8,7.8-104c2.4-136-21-256.1-68.5-351
			c-10-20.1-18.3-34.3-31.7-54.5c-19.5-29.3-37.7-51.2-62.6-75.5c-32.4-31.6-68-57.4-108.9-79.2l-9.5-5l-7.2-0.5
			C740.3,200.5,737,200.6,737,200.9z"/>
		
			<linearGradient id="SVGID_00000152949285337242972490000008535069291365821348_" gradientUnits="userSpaceOnUse" x1="571.6204" y1="-109.1526" x2="997.5478" y2="-146.4164" gradientTransform="matrix(1 0 0 1 0 872)">
			<stop  offset="0" style="stop-color:#B1121B"/>
			<stop  offset="0.7193" style="stop-color:#B1121B"/>
			<stop  offset="0.8377" style="stop-color:#B1121B"/>
			<stop  offset="0.8899" style="stop-color:#B2141D"/>
			<stop  offset="0.9125" style="stop-color:#B41B24"/>
			<stop  offset="0.9294" style="stop-color:#B82830"/>
			<stop  offset="0.9436" style="stop-color:#BE3A41"/>
			<stop  offset="0.9559" style="stop-color:#C65158"/>
			<stop  offset="0.967" style="stop-color:#CF6E73"/>
			<stop  offset="0.9772" style="stop-color:#DA9094"/>
			<stop  offset="0.9866" style="stop-color:#E7B7BA"/>
			<stop  offset="0.9952" style="stop-color:#F6E3E4"/>
			<stop  offset="1" style="stop-color:#FFFFFF"/>
		</linearGradient>
		<path style="fill:url(#SVGID_00000152949285337242972490000008535069291365821348_);" d="M684.6,202.9l-3.8,0.6l10.8,5.5
			c79.3,40,143.2,96.4,190.9,168.5c47.7,72,78,158.2,91.4,260c7.7,58.4,9.3,133.2,4.1,195c-5.5,64.9-21.3,132.8-43.5,186
			c-26.3,63-61.5,115-109.6,162c-41.8,40.7-89.7,73.7-148.2,102c-19.6,9.4-33.9,15.8-48.2,21.5c-9.1,3.6-11.2,5-7.2,5
			c3.1,0,23-7.7,46.7-17.9c20.5-8.9,54-26.1,72.5-37.1c68.1-40.6,122.7-91.5,163.6-152.5c24.2-36.3,45.4-80.5,60.3-126
			C980.8,925,991.5,865.2,995,804c1.3-22.8,1.3-76.3,0-101c-6.4-119.8-32.8-218.9-80.5-302.1c-31.8-55.2-74-102.9-124.5-140.5
			c-23-17.1-40-27.8-67-42.1c-8.8-4.7-33.9-16.5-34.3-16.2C688.6,202.2,686.8,202.6,684.6,202.9z"/>
		
			<linearGradient id="SVGID_00000062169047793186807490000008563590355160798082_" gradientUnits="userSpaceOnUse" x1="668.5963" y1="-101.3296" x2="1072.7059" y2="-136.6846" gradientTransform="matrix(1 0 0 1 0 872)">
			<stop  offset="0" style="stop-color:#B1121B"/>
			<stop  offset="0.7193" style="stop-color:#B1121B"/>
			<stop  offset="0.8377" style="stop-color:#B1121B"/>
			<stop  offset="0.8899" style="stop-color:#B2141D"/>
			<stop  offset="0.9125" style="stop-color:#B41B24"/>
			<stop  offset="0.9294" style="stop-color:#B82830"/>
			<stop  offset="0.9436" style="stop-color:#BE3A41"/>
			<stop  offset="0.9559" style="stop-color:#C65158"/>
			<stop  offset="0.967" style="stop-color:#CF6E73"/>
			<stop  offset="0.9772" style="stop-color:#DA9094"/>
			<stop  offset="0.9866" style="stop-color:#E7B7BA"/>
			<stop  offset="0.9952" style="stop-color:#F6E3E4"/>
			<stop  offset="1" style="stop-color:#FFFFFF"/>
		</linearGradient>
		<path style="fill:url(#SVGID_00000062169047793186807490000008563590355160798082_);" d="M812.5,213.2
			c29.4,19.5,50.2,36.5,75.6,61.8c25.3,25.2,43.3,47.3,63.3,77.7c13.4,20.5,21.7,35.2,33.7,59.8c25.9,53.3,45.7,117.9,56.4,184.7
			c7.6,47.8,11.5,99.5,11.5,154.8c0,119.5-21,221-64,309.8c-10.8,22.3-20.7,39.6-34.8,60.8c-38.4,57.8-85.2,104.8-145.4,145.8
			c-19.3,13.1-48.9,30.5-71.5,41.8l-20.6,10.3l5.8,0.3c3.2,0.2,7.2-0.2,8.9-0.9c6.1-2.5,38.4-18.8,50.6-25.7
			c48-26.9,89.5-58.5,126.5-96.3c41.3-42.2,70.8-84.2,97.1-138.4c34.9-71.9,55.1-152.5,62-246.4c3.7-51.7,2.2-123.2-3.7-176.1
			c-11.3-101.7-37.1-187.6-77.7-259c-38.8-68.2-92.1-124.5-157.1-166l-8.4-5.4l-9.6-1.3c-5.3-0.7-10.3-1.2-11.1-1.3
			C799.2,204,804.9,208.2,812.5,213.2z"/>
		
			<linearGradient id="SVGID_00000131328016292792403730000012905485033695755158_" gradientUnits="userSpaceOnUse" x1="532.5579" y1="-111.3644" x2="960.2566" y2="-148.7831" gradientTransform="matrix(1 0 0 1 0 872)">
			<stop  offset="0" style="stop-color:#B1121B"/>
			<stop  offset="0.7193" style="stop-color:#B1121B"/>
			<stop  offset="0.8377" style="stop-color:#B1121B"/>
			<stop  offset="0.8899" style="stop-color:#B2141D"/>
			<stop  offset="0.9125" style="stop-color:#B41B24"/>
			<stop  offset="0.9294" style="stop-color:#B82830"/>
			<stop  offset="0.9436" style="stop-color:#BE3A41"/>
			<stop  offset="0.9559" style="stop-color:#C65158"/>
			<stop  offset="0.967" style="stop-color:#CF6E73"/>
			<stop  offset="0.9772" style="stop-color:#DA9094"/>
			<stop  offset="0.9866" style="stop-color:#E7B7BA"/>
			<stop  offset="0.9952" style="stop-color:#F6E3E4"/>
			<stop  offset="1" style="stop-color:#FFFFFF"/>
		</linearGradient>
		<path style="fill:url(#SVGID_00000131328016292792403730000012905485033695755158_);" d="M636.1,209.9l-2.3,0.6l17.8,8.9
			c42.3,20.8,77,43.7,110.4,72.5c65.7,56.8,114.5,130.1,145.2,218.6c20.8,59.9,32.6,123.4,36.9,199.6c1.5,26.7,0.7,93.1-1.5,117.9
			c-7.5,86.5-27.8,161.3-60.8,224c-27.3,52-63.2,97-107.8,135.4c-47.9,41.1-105,74.4-175.8,102.6c-10.6,4.2-19,7.9-18.6,8.2
			c0.6,0.7,8.5-2.1,31.8-11.1c74.1-28.8,138-66.9,186.8-111.4c43-39.3,76.5-83.7,102.4-135.7c29.8-59.9,48.2-127.7,55.4-204.5
			c2.4-25.9,3.1-42.2,3-78.8c0-46.4-1.4-72.7-6.1-110.7c-14.7-120.5-54.1-219.2-118.8-297.5C787.9,292.6,723.2,245,652.7,215.1
			C639.3,209.4,638.8,209.2,636.1,209.9z"/>
		
			<linearGradient id="SVGID_00000001633544353297417680000002818244985104550310_" gradientUnits="userSpaceOnUse" x1="730.5157" y1="-95.0463" x2="1110.5847" y2="-128.298" gradientTransform="matrix(1 0 0 1 0 872)">
			<stop  offset="0" style="stop-color:#B1121B"/>
			<stop  offset="0.7193" style="stop-color:#B1121B"/>
			<stop  offset="0.8377" style="stop-color:#B1121B"/>
			<stop  offset="0.8899" style="stop-color:#B2141D"/>
			<stop  offset="0.9125" style="stop-color:#B41B24"/>
			<stop  offset="0.9294" style="stop-color:#B82830"/>
			<stop  offset="0.9436" style="stop-color:#BE3A41"/>
			<stop  offset="0.9559" style="stop-color:#C65158"/>
			<stop  offset="0.967" style="stop-color:#CF6E73"/>
			<stop  offset="0.9772" style="stop-color:#DA9094"/>
			<stop  offset="0.9866" style="stop-color:#E7B7BA"/>
			<stop  offset="0.9952" style="stop-color:#F6E3E4"/>
			<stop  offset="1" style="stop-color:#FFFFFF"/>
		</linearGradient>
		<path style="fill:url(#SVGID_00000001633544353297417680000002818244985104550310_);" d="M872,217.3c0,0.2,2.8,2.6,6.3,5.2
			c25.7,20,56.3,50.1,77.9,76.8c79.5,98.1,122.9,228.6,131.7,396.2c2.2,40.9,0.8,105.7-2.9,143c-7.2,71.5-22.4,135.5-46.1,194.8
			c-7.8,19.5-27.5,59.5-37.6,76.2c-17.1,28.3-34.7,53-53.8,75.5c-13.1,15.4-46,48.1-61.5,61.2c-29.7,25-66.6,50.3-100.2,68.7
			c-4.3,2.4-7.8,4.5-7.8,4.8c0,0.8,14.1-0.7,17.9-1.9c4-1.3,25.2-13.3,41.3-23.4c36.4-23.1,67.7-48.1,97.3-77.8
			c27.2-27.3,47.4-52,68-83.1c37-55.8,63.1-115.9,80.5-185.3c16.1-64.2,23.3-127.8,23.3-204.2c-0.1-69.1-5.6-130.1-17.3-189.2
			c-21.2-107.1-60.4-193.6-120-264.7c-16.7-20-46.3-49-62.5-61.2c-3.9-2.9-7.9-4.6-17-7.2C875.5,217.7,872,216.8,872,217.3z"/>
		
			<linearGradient id="SVGID_00000146501484967743425100000000799978673852697757_" gradientUnits="userSpaceOnUse" x1="522.5764" y1="-118.9343" x2="922.6983" y2="-153.9404" gradientTransform="matrix(1 0 0 1 0 872)">
			<stop  offset="0" style="stop-color:#B1121B"/>
			<stop  offset="0.7193" style="stop-color:#B1121B"/>
			<stop  offset="0.8377" style="stop-color:#B1121B"/>
			<stop  offset="0.8899" style="stop-color:#B2141D"/>
			<stop  offset="0.9125" style="stop-color:#B41B24"/>
			<stop  offset="0.9294" style="stop-color:#B82830"/>
			<stop  offset="0.9436" style="stop-color:#BE3A41"/>
			<stop  offset="0.9559" style="stop-color:#C65158"/>
			<stop  offset="0.967" style="stop-color:#CF6E73"/>
			<stop  offset="0.9772" style="stop-color:#DA9094"/>
			<stop  offset="0.9866" style="stop-color:#E7B7BA"/>
			<stop  offset="0.9952" style="stop-color:#F6E3E4"/>
			<stop  offset="1" style="stop-color:#FFFFFF"/>
		</linearGradient>
		<path style="fill:url(#SVGID_00000146501484967743425100000000799978673852697757_);" d="M592.6,219.8c-0.3,0.4,2.5,2.1,6.2,3.7
			c26.9,11.5,64.7,33,91.6,52.1c30.8,21.8,69.7,57.6,92.2,84.9c63.5,77,102.3,169.1,118.4,280.5c5.9,40.7,8,72.4,8,120
			c0,55.9-3.9,99.3-13,145c-15.1,76-42.7,140.5-84.3,197c-17.3,23.4-43.4,51.4-66.7,71.4c-44.5,38.2-102.2,72-166.3,97.6
			c-5.9,2.4-10.6,4.5-10.3,4.7c1.2,1.2,47-17.9,73.1-30.6c87.7-42.6,152.6-97.6,199-168.5c19.5-29.8,37.3-66.2,50-102.6
			c9.1-26,19.2-68,24-99.4c6-39.3,7.9-68.2,7.9-116.1c0-54.8-3-93-10.9-140c-16.5-98.5-52.2-182.8-106-250
			C754.7,305.9,689,257.8,606.6,223.9C594.1,218.7,593.4,218.5,592.6,219.8z"/>
		
			<linearGradient id="SVGID_00000039847015789315549140000001955004564884569736_" gradientUnits="userSpaceOnUse" x1="545.1741" y1="-133.0943" x2="884.7122" y2="-162.8" gradientTransform="matrix(1 0 0 1 0 872)">
			<stop  offset="0" style="stop-color:#B1121B"/>
			<stop  offset="0.7193" style="stop-color:#B1121B"/>
			<stop  offset="0.8377" style="stop-color:#B1121B"/>
			<stop  offset="0.8899" style="stop-color:#B2141D"/>
			<stop  offset="0.9125" style="stop-color:#B41B24"/>
			<stop  offset="0.9294" style="stop-color:#B82830"/>
			<stop  offset="0.9436" style="stop-color:#BE3A41"/>
			<stop  offset="0.9559" style="stop-color:#C65158"/>
			<stop  offset="0.967" style="stop-color:#CF6E73"/>
			<stop  offset="0.9772" style="stop-color:#DA9094"/>
			<stop  offset="0.9866" style="stop-color:#E7B7BA"/>
			<stop  offset="0.9952" style="stop-color:#F6E3E4"/>
			<stop  offset="1" style="stop-color:#FFFFFF"/>
		</linearGradient>
		<path style="fill:url(#SVGID_00000039847015789315549140000001955004564884569736_);" d="M559,233.8
			c41.5,19.9,58.8,29.3,82.4,44.8c28.3,18.7,51.1,37,75,60.3c24.8,24.3,43.6,46.9,62.8,75.7c18.1,27,32.1,52.8,45.2,83.7
			c27.3,64.1,42.9,135.1,47.7,216.9c1.5,26.4,0.7,94.5-1.5,117.8c-9,96.9-34,174.8-77.1,240.5c-29.9,45.6-68.6,84.9-115.5,117.3
			c-24.2,16.8-35.3,23.4-66.5,39.3c-12.6,6.5-22.7,11.9-22.3,11.9c1.4,0,31.1-14,43.5-20.6c44.2-23.3,81.1-49.1,110.8-77.4
			c37.4-35.7,62.6-69.2,85.6-113.5c29.7-57.3,47.7-124.6,54.6-203.5c2.2-25.4,2.5-97.4,0.5-123c-6.5-84.3-21.3-149.1-48.1-211.8
			c-50.3-117.4-142.5-205.9-266.5-255.6C554.9,230.7,549.8,229.3,559,233.8z"/>
		
			<linearGradient id="SVGID_00000114075887372282065720000013087635380266632365_" gradientUnits="userSpaceOnUse" x1="803.519" y1="-86.6218" x2="1148.6592" y2="-116.8176" gradientTransform="matrix(1 0 0 1 0 872)">
			<stop  offset="0" style="stop-color:#B1121B"/>
			<stop  offset="0.7193" style="stop-color:#B1121B"/>
			<stop  offset="0.8377" style="stop-color:#B1121B"/>
			<stop  offset="0.8899" style="stop-color:#B2141D"/>
			<stop  offset="0.9125" style="stop-color:#B41B24"/>
			<stop  offset="0.9294" style="stop-color:#B82830"/>
			<stop  offset="0.9436" style="stop-color:#BE3A41"/>
			<stop  offset="0.9559" style="stop-color:#C65158"/>
			<stop  offset="0.967" style="stop-color:#CF6E73"/>
			<stop  offset="0.9772" style="stop-color:#DA9094"/>
			<stop  offset="0.9866" style="stop-color:#E7B7BA"/>
			<stop  offset="0.9952" style="stop-color:#F6E3E4"/>
			<stop  offset="1" style="stop-color:#FFFFFF"/>
		</linearGradient>
		<path style="fill:url(#SVGID_00000114075887372282065720000013087635380266632365_);" d="M957.1,248.7
			c13.5,14.2,21.7,23.4,29.2,32.6c60.5,73.6,99.5,161.2,121.6,272.7c7.8,39.2,12.9,82.7,16.1,137.5c1.4,23.9,0.5,102.7-1.4,126.5
			c-5.6,69.1-16.8,127.3-35.6,184c-36,108.8-99.1,200.7-184.9,269.4c-13.6,10.9-37.7,28.4-47,34.1c-3.4,2.1-5.9,4-5.7,4.2
			c0.7,0.7,24.1-4.8,27.3-6.5c5.1-2.6,26.9-18.4,39.5-28.4c19-15.3,30.5-25.6,47.3-42.3c34.6-34.4,60.6-67.7,86.9-111.5
			c10-16.5,27.7-51.5,35.5-70c29.9-70.9,47.6-146.8,54.7-234.5c2.2-27.3,3-97.3,1.5-126.3c-3.1-57.9-8.2-101.3-17.2-146.5
			c-21.3-106.2-60.6-193.9-118.3-263.7c-12.8-15.5-16.2-18.8-23.8-22.6C976,254,960,246.8,955,244.8l-2.5-0.9L957.1,248.7z"/>
		
			<linearGradient id="SVGID_00000183939081795392844810000010120990299376206734_" gradientUnits="userSpaceOnUse" x1="562.8187" y1="-145.7349" x2="846.8782" y2="-170.5869" gradientTransform="matrix(1 0 0 1 0 872)">
			<stop  offset="0" style="stop-color:#B1121B"/>
			<stop  offset="0.7193" style="stop-color:#B1121B"/>
			<stop  offset="0.8377" style="stop-color:#B1121B"/>
			<stop  offset="0.8899" style="stop-color:#B2141D"/>
			<stop  offset="0.9125" style="stop-color:#B41B24"/>
			<stop  offset="0.9294" style="stop-color:#B82830"/>
			<stop  offset="0.9436" style="stop-color:#BE3A41"/>
			<stop  offset="0.9559" style="stop-color:#C65158"/>
			<stop  offset="0.967" style="stop-color:#CF6E73"/>
			<stop  offset="0.9772" style="stop-color:#DA9094"/>
			<stop  offset="0.9866" style="stop-color:#E7B7BA"/>
			<stop  offset="0.9952" style="stop-color:#F6E3E4"/>
			<stop  offset="1" style="stop-color:#FFFFFF"/>
		</linearGradient>
		<path style="fill:url(#SVGID_00000183939081795392844810000010120990299376206734_);" d="M546.5,257.4
			c58.2,28.6,103.5,61.1,145,103.8c21.5,22.1,36.1,40.1,53.2,65.3c49.9,74.2,79,160.3,89.4,265.5c2.7,26.5,3.7,93.5,2,120.9
			c-5.3,81.8-20.3,145.1-48.6,204.6c-19.7,41.6-44.4,76.4-78,110.1c-28.5,28.6-55.6,49.4-91.5,70.4c-15.6,9.1-17.7,11-4.5,4
			c84-44.5,146.1-106.9,184.6-185.4c28.7-58.3,45.1-125.5,49.9-204.1c1.3-20.9,1.3-71.5,0-94.1c-6.2-107.2-31.7-197.4-77.3-272.8
			c-33.5-55.5-80.4-104.8-134.7-141.5c-34.9-23.5-66.3-40.2-105.4-55.7c-3.3-1.3-6.2-2.4-6.5-2.4C523.8,246,533.9,251.1,546.5,257.4
			z"/>
		
			<linearGradient id="SVGID_00000036958657527547799430000006659131095262610853_" gradientUnits="userSpaceOnUse" x1="543.1559" y1="-151.2787" x2="809.4368" y2="-174.5753" gradientTransform="matrix(1 0 0 1 0 872)">
			<stop  offset="0" style="stop-color:#B1121B"/>
			<stop  offset="0.7193" style="stop-color:#B1121B"/>
			<stop  offset="0.8377" style="stop-color:#B1121B"/>
			<stop  offset="0.8899" style="stop-color:#B2141D"/>
			<stop  offset="0.9125" style="stop-color:#B41B24"/>
			<stop  offset="0.9294" style="stop-color:#B82830"/>
			<stop  offset="0.9436" style="stop-color:#BE3A41"/>
			<stop  offset="0.9559" style="stop-color:#C65158"/>
			<stop  offset="0.967" style="stop-color:#CF6E73"/>
			<stop  offset="0.9772" style="stop-color:#DA9094"/>
			<stop  offset="0.9866" style="stop-color:#E7B7BA"/>
			<stop  offset="0.9952" style="stop-color:#F6E3E4"/>
			<stop  offset="1" style="stop-color:#FFFFFF"/>
		</linearGradient>
		<path style="fill:url(#SVGID_00000036958657527547799430000006659131095262610853_);" d="M521.5,274.9
			c49.5,25.5,90.7,54.8,126.9,90.1c56.1,54.7,95.9,118.8,121.6,196c17,50.9,26,99.3,30.1,161.3c1.5,23.8,0.6,91.3-1.5,114.7
			c-8.7,92.6-33.8,167.5-77.2,229.6c-25.4,36.5-56.7,67.7-96.4,96c-17.8,12.6-17.9,12.8-13.5,10.3c9.8-5.5,35.3-23.4,48.9-34.3
			c17-13.7,41.1-37.1,53.9-52.6c49.9-60,80.4-134.4,92.6-225.5c7.4-55.1,7.6-121.7,0.5-183c-8.6-75.8-31.1-148.3-63.8-206
			C699.4,393.7,636.4,333.3,552.2,288c-13.7-7.3-47-23-48.9-23C502.9,265,511.1,269.5,521.5,274.9z"/>
		
			<linearGradient id="SVGID_00000176728783590477704050000011242039136702612104_" gradientUnits="userSpaceOnUse" x1="522.7989" y1="-153.9282" x2="772.4861" y2="-175.7729" gradientTransform="matrix(1 0 0 1 0 872)">
			<stop  offset="0" style="stop-color:#B1121B"/>
			<stop  offset="0.7193" style="stop-color:#B1121B"/>
			<stop  offset="0.8377" style="stop-color:#B1121B"/>
			<stop  offset="0.8899" style="stop-color:#B2141D"/>
			<stop  offset="0.9125" style="stop-color:#B41B24"/>
			<stop  offset="0.9294" style="stop-color:#B82830"/>
			<stop  offset="0.9436" style="stop-color:#BE3A41"/>
			<stop  offset="0.9559" style="stop-color:#C65158"/>
			<stop  offset="0.967" style="stop-color:#CF6E73"/>
			<stop  offset="0.9772" style="stop-color:#DA9094"/>
			<stop  offset="0.9866" style="stop-color:#E7B7BA"/>
			<stop  offset="0.9952" style="stop-color:#F6E3E4"/>
			<stop  offset="1" style="stop-color:#FFFFFF"/>
		</linearGradient>
		<path style="fill:url(#SVGID_00000176728783590477704050000011242039136702612104_);" d="M489.5,288.9c2.8,1.5,12,6.7,20.5,11.6
			c28,15.8,54.5,34.1,80,55.4c15,12.5,45.1,42.6,57.2,57.1c8.4,10.2,14.3,17.7,37.4,48.2c17.2,22.6,35.2,59.5,47.4,97.3
			c6.3,19.4,16.6,58.7,20.4,78c4.1,20.3,8.1,47.2,9.6,64.5c0.6,6.9,1.3,14.1,1.6,16c1.3,8.4,1.6,84.9,0.5,101.4
			c-3.1,43.8-8.1,76.8-16.7,109.6c-15.4,58.5-38.5,105.9-73.6,150.3c-10.2,12.9-42.2,44.8-55.3,55.3c-16.5,13-17.2,13.6-14.7,12.4
			c3.8-1.8,28.9-21.1,38.6-29.5c73.1-64,115.5-151,129-264.5c3.3-27.2,4.1-43.3,4-82c0-40.2-0.9-57.1-4.5-87
			c-10.4-86.3-36.1-160.5-77.7-224c-44.6-68.2-110.1-125.2-188.8-164.1C486.7,286.2,479.6,283.3,489.5,288.9z"/>
		
			<linearGradient id="SVGID_00000030457930807181637380000002433449606962325695_" gradientUnits="userSpaceOnUse" x1="887.5009" y1="-76.4835" x2="1187.0868" y2="-102.6938" gradientTransform="matrix(1 0 0 1 0 872)">
			<stop  offset="0" style="stop-color:#B1121B"/>
			<stop  offset="0.7193" style="stop-color:#B1121B"/>
			<stop  offset="0.8377" style="stop-color:#B1121B"/>
			<stop  offset="0.8899" style="stop-color:#B2141D"/>
			<stop  offset="0.9125" style="stop-color:#B41B24"/>
			<stop  offset="0.9294" style="stop-color:#B82830"/>
			<stop  offset="0.9436" style="stop-color:#BE3A41"/>
			<stop  offset="0.9559" style="stop-color:#C65158"/>
			<stop  offset="0.967" style="stop-color:#CF6E73"/>
			<stop  offset="0.9772" style="stop-color:#DA9094"/>
			<stop  offset="0.9866" style="stop-color:#E7B7BA"/>
			<stop  offset="0.9952" style="stop-color:#F6E3E4"/>
			<stop  offset="1" style="stop-color:#FFFFFF"/>
		</linearGradient>
		<path style="fill:url(#SVGID_00000030457930807181637380000002433449606962325695_);" d="M1036,287.4c0,0.3,2.9,4.6,6.5,9.5
			c34,47.2,64.2,110.6,82.9,174.1c25.2,85.8,36.9,181.1,35.2,287c-0.3,22.3-0.9,43-1.1,46c-0.3,3-1.2,14-2.1,24.4
			c-10,122.6-46.6,235-105.8,325.1c-11.7,17.8-30.8,43.2-44.3,58.8c-18.8,21.9-47.9,50.4-72.3,71l-4.5,3.7l6.5-2.4
			c3.6-1.3,11.9-4.5,18.4-7.2l11.9-4.8l13.6-12.7c22.4-20.8,47-48.1,65.8-73c50-66.6,86.2-143.7,107.7-229.7
			c23.4-93.4,30.6-193.5,22.1-307.9c-9.5-127.8-41.8-239.7-93.7-324.5l-6.3-10.2l-17.3-12.1C1041.4,290,1036,286.5,1036,287.4z"/>
		
			<linearGradient id="SVGID_00000026133842484888931590000004443971757397027208_" gradientUnits="userSpaceOnUse" x1="985.0137" y1="-68.4772" x2="1225.3336" y2="-89.5025" gradientTransform="matrix(1 0 0 1 0 872)">
			<stop  offset="0" style="stop-color:#B1121B"/>
			<stop  offset="0.7193" style="stop-color:#B1121B"/>
			<stop  offset="0.8377" style="stop-color:#B1121B"/>
			<stop  offset="0.8899" style="stop-color:#B2141D"/>
			<stop  offset="0.9125" style="stop-color:#B41B24"/>
			<stop  offset="0.9294" style="stop-color:#B82830"/>
			<stop  offset="0.9436" style="stop-color:#BE3A41"/>
			<stop  offset="0.9559" style="stop-color:#C65158"/>
			<stop  offset="0.967" style="stop-color:#CF6E73"/>
			<stop  offset="0.9772" style="stop-color:#DA9094"/>
			<stop  offset="0.9866" style="stop-color:#E7B7BA"/>
			<stop  offset="0.9952" style="stop-color:#F6E3E4"/>
			<stop  offset="1" style="stop-color:#FFFFFF"/>
		</linearGradient>
		<path style="fill:url(#SVGID_00000026133842484888931590000004443971757397027208_);" d="M1117,349.2c0,0.2,3.8,8.5,8.4,18.3
			c23.8,51.2,40.2,102.6,52.6,164.2c12.4,62.1,19,133.5,19,206.8c0,158.8-32.9,291.8-100.1,405c-18.5,31.3-42.4,63.7-67.7,92.3
			c-3.5,3.9-6.1,7.2-5.7,7.2c0.9,0,23.9-14.7,35.2-22.6l9.2-6.5l10.6-14c97.2-129.1,143.8-298,137.5-498.2
			c-1-33.1-1.5-41.9-4.1-72.7c-6.8-80.6-24.7-161.9-50-226.9l-5.2-13.5l-13.9-14.7C1130.9,361.4,1117,348,1117,349.2z"/>
		
			<linearGradient id="SVGID_00000111189134902189675720000007175353854450476184_" gradientUnits="userSpaceOnUse" x1="1087.2748" y1="-65.2816" x2="1263.2531" y2="-80.6779" gradientTransform="matrix(1 0 0 1 0 872)">
			<stop  offset="0" style="stop-color:#B1121B"/>
			<stop  offset="0.7193" style="stop-color:#B1121B"/>
			<stop  offset="0.8377" style="stop-color:#B1121B"/>
			<stop  offset="0.8899" style="stop-color:#B2141D"/>
			<stop  offset="0.9125" style="stop-color:#B41B24"/>
			<stop  offset="0.9294" style="stop-color:#B82830"/>
			<stop  offset="0.9436" style="stop-color:#BE3A41"/>
			<stop  offset="0.9559" style="stop-color:#C65158"/>
			<stop  offset="0.967" style="stop-color:#CF6E73"/>
			<stop  offset="0.9772" style="stop-color:#DA9094"/>
			<stop  offset="0.9866" style="stop-color:#E7B7BA"/>
			<stop  offset="0.9952" style="stop-color:#F6E3E4"/>
			<stop  offset="1" style="stop-color:#FFFFFF"/>
		</linearGradient>
		<path style="fill:url(#SVGID_00000111189134902189675720000007175353854450476184_);" d="M1190,430.3c0,0.3,2.2,8.1,5,17.2
			c25,83,38,181.4,38,288.5c0,119.6-18.3,225-55.3,319.6c-14.4,36.6-33.7,75.4-52.9,106.3c-3.3,5.1-5.7,9.5-5.6,9.7
			c0.6,0.6,25.9-24.6,36.9-36.8l11.5-12.7l6.3-12.8c35.7-71.8,60.7-158.5,71.6-247.8c5.8-47.8,7.5-76.6,7.5-129c0-41.8-1-67.6-4-104
			c-3.8-45.4-10.4-90.4-19.1-129.5l-3-13.5l-6.1-10c-7.8-12.6-15.6-24.6-23.2-35.5C1191.2,430.8,1190,429.3,1190,430.3z"/>
		
			<linearGradient id="SVGID_00000031917121942278484970000011360445091724370562_" gradientUnits="userSpaceOnUse" x1="1192.2118" y1="-68.7665" x2="1300.2301" y2="-78.2167" gradientTransform="matrix(1 0 0 1 0 872)">
			<stop  offset="0" style="stop-color:#B1121B"/>
			<stop  offset="0.7193" style="stop-color:#B1121B"/>
			<stop  offset="0.8377" style="stop-color:#B1121B"/>
			<stop  offset="0.8899" style="stop-color:#B2141D"/>
			<stop  offset="0.9125" style="stop-color:#B41B24"/>
			<stop  offset="0.9294" style="stop-color:#B82830"/>
			<stop  offset="0.9436" style="stop-color:#BE3A41"/>
			<stop  offset="0.9559" style="stop-color:#C65158"/>
			<stop  offset="0.967" style="stop-color:#CF6E73"/>
			<stop  offset="0.9772" style="stop-color:#DA9094"/>
			<stop  offset="0.9866" style="stop-color:#E7B7BA"/>
			<stop  offset="0.9952" style="stop-color:#F6E3E4"/>
			<stop  offset="1" style="stop-color:#FFFFFF"/>
		</linearGradient>
		<path style="fill:url(#SVGID_00000031917121942278484970000011360445091724370562_);" d="M1254.4,543c1.6,7.2,7,48.4,9.1,69.5
			c1.2,12,3.5,45.1,4.2,60.4c1.2,26.1,0.8,111.5-0.6,129.6c-3.3,43.9-6,66.9-11.6,100c-8.1,48.1-20.4,96-35.4,138.2
			c-3.3,9.2-5.9,16.9-5.6,17.1c0.8,0.9,20.6-33.8,29.4-51.8c14.8-29.9,20.5-44.7,24.5-63.5c10.2-48,15.6-87.5,19.8-145
			c1.6-22.6,1.6-113.8,0-140c-1.4-21.3-3-29.6-10.8-55c-2-6.6-4.1-13.6-4.6-15.5c-1.5-5.4-16.9-44.4-18-45.5
			C1254.2,540.9,1254.1,541.4,1254.4,543z"/>
	</g>
</g>
</svg>
